<mxfile host="app.diagrams.net" modified="2021-09-13T04:27:04.722Z" agent="5.0 (Windows NT 10.0; Win64; x64) AppleWebKit/537.36 (KHTML, like Gecko) Chrome/93.0.4577.63 Safari/537.36" etag="jOQ5AJxGJZgGYgXAGtM7" version="15.1.4" type="github">
  <diagram id="XlCr0blBiB29ZodINe09" name="Page-1">
    <mxGraphModel dx="782" dy="468" grid="1" gridSize="10" guides="1" tooltips="1" connect="1" arrows="1" fold="1" page="0" pageScale="1" pageWidth="827" pageHeight="1169" math="0" shadow="0">
      <root>
        <mxCell id="0" />
        <mxCell id="1" parent="0" />
        <mxCell id="9bMtUkMzaD1Lc-QsG-QS-1" value="Z" style="edgeStyle=orthogonalEdgeStyle;rounded=0;orthogonalLoop=1;jettySize=auto;html=1;entryX=0;entryY=0.5;entryDx=0;entryDy=0;dashed=1;strokeColor=#0000CC;endArrow=none;endFill=0;" edge="1" parent="1" source="9bMtUkMzaD1Lc-QsG-QS-2" target="9bMtUkMzaD1Lc-QsG-QS-4">
          <mxGeometry relative="1" as="geometry" />
        </mxCell>
        <mxCell id="9bMtUkMzaD1Lc-QsG-QS-2" value="" style="aspect=fixed;pointerEvents=1;shadow=0;dashed=0;html=1;strokeColor=none;labelPosition=center;verticalLabelPosition=bottom;verticalAlign=top;align=center;fillColor=#00188D;shape=mxgraph.azure.user" vertex="1" parent="1">
          <mxGeometry x="120" y="160" width="47" height="50" as="geometry" />
        </mxCell>
        <mxCell id="9bMtUkMzaD1Lc-QsG-QS-3" value="&lt;b&gt;&lt;font style=&quot;font-size: 11px&quot;&gt;Real-Time Policy Evaluation&lt;/font&gt;&lt;/b&gt;" style="text;html=1;resizable=0;autosize=1;align=center;verticalAlign=middle;points=[];fillColor=none;strokeColor=none;rounded=0;" vertex="1" parent="1">
          <mxGeometry x="455" y="350" width="160" height="20" as="geometry" />
        </mxCell>
        <mxCell id="9bMtUkMzaD1Lc-QsG-QS-4" value="" style="ellipse;whiteSpace=wrap;html=1;fillColor=none;dashed=1;strokeColor=#000099;strokeWidth=1;" vertex="1" parent="1">
          <mxGeometry x="440" y="300" width="190" height="105" as="geometry" />
        </mxCell>
        <mxCell id="9bMtUkMzaD1Lc-QsG-QS-5" value="&lt;b style=&quot;font-size: 17px&quot;&gt;&lt;font color=&quot;#000099&quot; style=&quot;font-size: 17px&quot;&gt;Security Policy &lt;br&gt;Enforcement&lt;br&gt;&lt;br&gt;&lt;/font&gt;&lt;/b&gt;" style="text;html=1;resizable=0;autosize=1;align=center;verticalAlign=middle;points=[];fillColor=none;strokeColor=none;rounded=0;" vertex="1" parent="1">
          <mxGeometry x="460" y="320" width="140" height="50" as="geometry" />
        </mxCell>
        <mxCell id="9bMtUkMzaD1Lc-QsG-QS-6" value="" style="shape=image;html=1;verticalAlign=top;verticalLabelPosition=bottom;labelBackgroundColor=#ffffff;imageAspect=0;aspect=fixed;image=https://cdn1.iconfinder.com/data/icons/funeral-7/64/calendar-time-date-organization-schedule-administration-calendars-time_and_date-interface-128.png;dashed=1;strokeColor=#000099;strokeWidth=1;fillColor=none;" vertex="1" parent="1">
          <mxGeometry x="500" y="112" width="48" height="48" as="geometry" />
        </mxCell>
        <mxCell id="9bMtUkMzaD1Lc-QsG-QS-7" style="edgeStyle=orthogonalEdgeStyle;rounded=0;orthogonalLoop=1;jettySize=auto;html=1;entryX=0.442;entryY=0;entryDx=0;entryDy=0;entryPerimeter=0;dashed=1;strokeColor=#0000CC;endArrow=none;endFill=0;" edge="1" parent="1" source="9bMtUkMzaD1Lc-QsG-QS-8" target="9bMtUkMzaD1Lc-QsG-QS-4">
          <mxGeometry relative="1" as="geometry" />
        </mxCell>
        <mxCell id="9bMtUkMzaD1Lc-QsG-QS-8" value="&lt;b&gt;&lt;font color=&quot;#0000cc&quot;&gt;OHG Policy&lt;/font&gt;&lt;/b&gt;" style="text;html=1;resizable=0;autosize=1;align=center;verticalAlign=middle;points=[];fillColor=none;strokeColor=none;rounded=0;dashed=1;" vertex="1" parent="1">
          <mxGeometry x="484" y="160" width="80" height="20" as="geometry" />
        </mxCell>
        <mxCell id="9bMtUkMzaD1Lc-QsG-QS-9" value="&lt;b&gt;&lt;font style=&quot;font-size: 13px&quot; color=&quot;#0000cc&quot;&gt;Identities&lt;/font&gt;&lt;/b&gt;" style="text;html=1;resizable=0;autosize=1;align=center;verticalAlign=middle;points=[];fillColor=none;strokeColor=none;rounded=0;dashed=1;" vertex="1" parent="1">
          <mxGeometry x="108.5" y="130" width="70" height="20" as="geometry" />
        </mxCell>
        <mxCell id="9bMtUkMzaD1Lc-QsG-QS-10" value="Identity Provider" style="text;html=1;resizable=0;autosize=1;align=center;verticalAlign=middle;points=[];rounded=0;dashed=1;fillColor=#f5f5f5;fontColor=#333333;" vertex="1" parent="1">
          <mxGeometry x="230" y="210" width="100" height="20" as="geometry" />
        </mxCell>
        <mxCell id="9bMtUkMzaD1Lc-QsG-QS-11" style="edgeStyle=orthogonalEdgeStyle;rounded=0;orthogonalLoop=1;jettySize=auto;html=1;entryX=0;entryY=0;entryDx=0;entryDy=0;dashed=1;endArrow=none;endFill=0;strokeColor=#0000CC;" edge="1" parent="1" source="9bMtUkMzaD1Lc-QsG-QS-12" target="9bMtUkMzaD1Lc-QsG-QS-4">
          <mxGeometry relative="1" as="geometry" />
        </mxCell>
        <mxCell id="9bMtUkMzaD1Lc-QsG-QS-12" value="Multi Factor Authentication" style="text;html=1;resizable=0;autosize=1;align=center;verticalAlign=middle;points=[];rounded=0;dashed=1;fillColor=#f5f5f5;fontColor=#333333;" vertex="1" parent="1">
          <mxGeometry x="220" y="270" width="160" height="20" as="geometry" />
        </mxCell>
        <mxCell id="9bMtUkMzaD1Lc-QsG-QS-13" style="edgeStyle=orthogonalEdgeStyle;rounded=0;orthogonalLoop=1;jettySize=auto;html=1;entryX=0;entryY=0.5;entryDx=0;entryDy=0;entryPerimeter=0;dashed=1;endArrow=none;endFill=0;strokeColor=#0000CC;" edge="1" parent="1" source="9bMtUkMzaD1Lc-QsG-QS-14" target="9bMtUkMzaD1Lc-QsG-QS-16">
          <mxGeometry relative="1" as="geometry" />
        </mxCell>
        <mxCell id="9bMtUkMzaD1Lc-QsG-QS-14" value="" style="pointerEvents=1;shadow=0;dashed=0;html=1;strokeColor=none;fillColor=#505050;labelPosition=center;verticalLabelPosition=bottom;verticalAlign=top;outlineConnect=0;align=center;shape=mxgraph.office.devices.laptop;" vertex="1" parent="1">
          <mxGeometry x="121.5" y="620" width="45.5" height="30" as="geometry" />
        </mxCell>
        <mxCell id="9bMtUkMzaD1Lc-QsG-QS-15" style="edgeStyle=orthogonalEdgeStyle;rounded=0;orthogonalLoop=1;jettySize=auto;html=1;entryX=-0.004;entryY=0.654;entryDx=0;entryDy=0;entryPerimeter=0;dashed=1;endArrow=none;endFill=0;strokeColor=#0000CC;" edge="1" parent="1" source="9bMtUkMzaD1Lc-QsG-QS-16" target="9bMtUkMzaD1Lc-QsG-QS-4">
          <mxGeometry relative="1" as="geometry">
            <Array as="points">
              <mxPoint x="300" y="369" />
            </Array>
          </mxGeometry>
        </mxCell>
        <mxCell id="9bMtUkMzaD1Lc-QsG-QS-16" value="" style="outlineConnect=0;dashed=0;verticalLabelPosition=bottom;verticalAlign=top;align=center;html=1;shape=mxgraph.aws3.inventory;fillColor=#759C3E;gradientColor=none;strokeColor=#000099;strokeWidth=1;" vertex="1" parent="1">
          <mxGeometry x="280" y="540" width="40" height="30" as="geometry" />
        </mxCell>
        <mxCell id="9bMtUkMzaD1Lc-QsG-QS-17" style="edgeStyle=orthogonalEdgeStyle;rounded=0;orthogonalLoop=1;jettySize=auto;html=1;entryX=0;entryY=0.5;entryDx=0;entryDy=0;entryPerimeter=0;dashed=1;strokeColor=#0000CC;endArrow=none;endFill=0;" edge="1" parent="1" source="9bMtUkMzaD1Lc-QsG-QS-18" target="9bMtUkMzaD1Lc-QsG-QS-16">
          <mxGeometry relative="1" as="geometry" />
        </mxCell>
        <mxCell id="9bMtUkMzaD1Lc-QsG-QS-18" value="" style="verticalLabelPosition=bottom;html=1;fillColor=#6ABD46;strokeColor=#ffffff;verticalAlign=top;align=center;points=[[0.085,0.085,0],[0.915,0.085,0],[0.915,0.915,0],[0.085,0.915,0],[0.25,0,0],[0.5,0,0],[0.75,0,0],[1,0.25,0],[1,0.5,0],[1,0.75,0],[0.75,1,0],[0.5,1,0],[0.25,1,0],[0,0.75,0],[0,0.5,0],[0,0.25,0]];pointerEvents=1;shape=mxgraph.cisco_safe.compositeIcon;bgIcon=mxgraph.cisco_safe.architecture.generic_appliance;resIcon=mxgraph.cisco_safe.architecture.corporate_device1;dashed=1;" vertex="1" parent="1">
          <mxGeometry x="117" y="470" width="50" height="50" as="geometry" />
        </mxCell>
        <mxCell id="9bMtUkMzaD1Lc-QsG-QS-19" value="Corporate Devices" style="text;html=1;resizable=0;autosize=1;align=center;verticalAlign=middle;points=[];fillColor=none;strokeColor=none;rounded=0;dashed=1;" vertex="1" parent="1">
          <mxGeometry x="85" y="520" width="110" height="20" as="geometry" />
        </mxCell>
        <mxCell id="9bMtUkMzaD1Lc-QsG-QS-20" value="Unmanaged Devices" style="text;html=1;resizable=0;autosize=1;align=center;verticalAlign=middle;points=[];fillColor=none;strokeColor=none;rounded=0;dashed=1;" vertex="1" parent="1">
          <mxGeometry x="85" y="650" width="130" height="20" as="geometry" />
        </mxCell>
        <mxCell id="9bMtUkMzaD1Lc-QsG-QS-21" value="Device Inventory" style="text;html=1;resizable=0;autosize=1;align=center;verticalAlign=middle;points=[];fillColor=none;strokeColor=none;rounded=0;dashed=1;" vertex="1" parent="1">
          <mxGeometry x="260" y="570" width="100" height="20" as="geometry" />
        </mxCell>
        <mxCell id="9bMtUkMzaD1Lc-QsG-QS-22" value="Device Risk and &lt;br&gt;Compliance State" style="text;html=1;resizable=0;autosize=1;align=center;verticalAlign=middle;points=[];rounded=0;dashed=1;fillColor=#f5f5f5;fontColor=#333333;" vertex="1" parent="1">
          <mxGeometry x="245" y="400" width="110" height="30" as="geometry" />
        </mxCell>
        <mxCell id="9bMtUkMzaD1Lc-QsG-QS-23" value="A" style="text;html=1;resizable=0;autosize=1;align=center;verticalAlign=middle;points=[];rounded=0;dashed=1;fillColor=#f5f5f5;fontColor=#333333;" vertex="1" parent="1">
          <mxGeometry x="291" y="471" width="18" height="18" as="geometry" />
        </mxCell>
        <mxCell id="9bMtUkMzaD1Lc-QsG-QS-24" style="edgeStyle=orthogonalEdgeStyle;rounded=0;orthogonalLoop=1;jettySize=auto;html=1;dashed=1;endArrow=none;endFill=0;strokeColor=#0000CC;" edge="1" parent="1" source="9bMtUkMzaD1Lc-QsG-QS-25" target="9bMtUkMzaD1Lc-QsG-QS-4">
          <mxGeometry relative="1" as="geometry" />
        </mxCell>
        <mxCell id="9bMtUkMzaD1Lc-QsG-QS-25" value="" style="fillColor=#28A8E0;verticalLabelPosition=bottom;html=1;strokeColor=#ffffff;verticalAlign=top;align=center;points=[[0.145,0.145,0],[0.5,0,0],[0.855,0.145,0],[1,0.5,0],[0.855,0.855,0],[0.5,1,0],[0.145,0.855,0],[0,0.5,0]];pointerEvents=1;shape=mxgraph.cisco_safe.compositeIcon;bgIcon=ellipse;resIcon=mxgraph.cisco_safe.capability.threat_intelligence;dashed=1;" vertex="1" parent="1">
          <mxGeometry x="514" y="490" width="43" height="43" as="geometry" />
        </mxCell>
        <mxCell id="9bMtUkMzaD1Lc-QsG-QS-26" value="Threat Intelligence" style="text;html=1;resizable=0;autosize=1;align=center;verticalAlign=middle;points=[];fillColor=none;strokeColor=none;rounded=0;dashed=1;" vertex="1" parent="1">
          <mxGeometry x="480.5" y="540" width="110" height="20" as="geometry" />
        </mxCell>
        <mxCell id="9bMtUkMzaD1Lc-QsG-QS-27" style="edgeStyle=orthogonalEdgeStyle;rounded=0;orthogonalLoop=1;jettySize=auto;html=1;entryX=1;entryY=0.5;entryDx=0;entryDy=0;dashed=1;endArrow=none;endFill=0;strokeColor=#0000CC;" edge="1" parent="1" source="9bMtUkMzaD1Lc-QsG-QS-28" target="9bMtUkMzaD1Lc-QsG-QS-4">
          <mxGeometry relative="1" as="geometry" />
        </mxCell>
        <mxCell id="9bMtUkMzaD1Lc-QsG-QS-28" value="" style="rounded=1;whiteSpace=wrap;html=1;dashed=1;strokeWidth=1;fillColor=none;strokeColor=#333333;" vertex="1" parent="1">
          <mxGeometry x="940" y="112" width="140" height="78" as="geometry" />
        </mxCell>
        <mxCell id="9bMtUkMzaD1Lc-QsG-QS-29" value="&lt;b&gt;&lt;font color=&quot;#0000cc&quot; style=&quot;font-size: 13px&quot;&gt;Devices&lt;/font&gt;&lt;/b&gt;" style="text;html=1;resizable=0;autosize=1;align=center;verticalAlign=middle;points=[];fillColor=none;strokeColor=none;rounded=0;dashed=1;" vertex="1" parent="1">
          <mxGeometry x="102" y="690" width="60" height="20" as="geometry" />
        </mxCell>
        <mxCell id="9bMtUkMzaD1Lc-QsG-QS-30" value="&lt;b&gt;&lt;font style=&quot;font-size: 13px&quot; color=&quot;#0000cc&quot;&gt;Data&lt;/font&gt;&lt;/b&gt;" style="text;html=1;resizable=0;autosize=1;align=center;verticalAlign=middle;points=[];fillColor=none;strokeColor=none;rounded=0;dashed=1;" vertex="1" parent="1">
          <mxGeometry x="980" y="112" width="40" height="20" as="geometry" />
        </mxCell>
        <mxCell id="9bMtUkMzaD1Lc-QsG-QS-31" style="edgeStyle=orthogonalEdgeStyle;rounded=0;orthogonalLoop=1;jettySize=auto;html=1;dashed=1;endArrow=none;endFill=0;strokeColor=#0000CC;" edge="1" parent="1" source="9bMtUkMzaD1Lc-QsG-QS-32">
          <mxGeometry relative="1" as="geometry">
            <mxPoint x="780" y="260" as="targetPoint" />
          </mxGeometry>
        </mxCell>
        <mxCell id="9bMtUkMzaD1Lc-QsG-QS-32" value="" style="rounded=1;whiteSpace=wrap;html=1;dashed=1;strokeWidth=1;fillColor=none;strokeColor=#333333;" vertex="1" parent="1">
          <mxGeometry x="940" y="220" width="140" height="80" as="geometry" />
        </mxCell>
        <mxCell id="9bMtUkMzaD1Lc-QsG-QS-33" style="edgeStyle=orthogonalEdgeStyle;rounded=0;orthogonalLoop=1;jettySize=auto;html=1;entryX=0;entryY=0.633;entryDx=0;entryDy=0;entryPerimeter=0;dashed=1;endArrow=none;endFill=0;strokeColor=#0000CC;" edge="1" parent="1" source="9bMtUkMzaD1Lc-QsG-QS-35" target="9bMtUkMzaD1Lc-QsG-QS-36">
          <mxGeometry relative="1" as="geometry">
            <Array as="points">
              <mxPoint x="890" y="360" />
              <mxPoint x="890" y="468" />
            </Array>
          </mxGeometry>
        </mxCell>
        <mxCell id="9bMtUkMzaD1Lc-QsG-QS-34" style="edgeStyle=orthogonalEdgeStyle;rounded=0;orthogonalLoop=1;jettySize=auto;html=1;entryX=1;entryY=0.5;entryDx=0;entryDy=0;dashed=1;endArrow=none;endFill=0;strokeColor=#0000CC;" edge="1" parent="1" source="9bMtUkMzaD1Lc-QsG-QS-35" target="9bMtUkMzaD1Lc-QsG-QS-4">
          <mxGeometry relative="1" as="geometry">
            <Array as="points">
              <mxPoint x="890" y="360" />
              <mxPoint x="890" y="410" />
              <mxPoint x="785" y="410" />
              <mxPoint x="785" y="353" />
            </Array>
          </mxGeometry>
        </mxCell>
        <mxCell id="9bMtUkMzaD1Lc-QsG-QS-35" value="" style="rounded=1;whiteSpace=wrap;html=1;dashed=1;strokeWidth=1;fillColor=none;strokeColor=#333333;" vertex="1" parent="1">
          <mxGeometry x="940" y="330" width="120" height="60" as="geometry" />
        </mxCell>
        <mxCell id="9bMtUkMzaD1Lc-QsG-QS-36" value="" style="rounded=1;whiteSpace=wrap;html=1;dashed=1;strokeWidth=1;fillColor=none;strokeColor=#333333;" vertex="1" parent="1">
          <mxGeometry x="940" y="430" width="120" height="60" as="geometry" />
        </mxCell>
        <mxCell id="9bMtUkMzaD1Lc-QsG-QS-37" value="&lt;b&gt;&lt;font color=&quot;#0000cc&quot; style=&quot;font-size: 13px&quot;&gt;Apps&lt;/font&gt;&lt;/b&gt;" style="text;html=1;resizable=0;autosize=1;align=center;verticalAlign=middle;points=[];fillColor=none;strokeColor=none;rounded=0;dashed=1;" vertex="1" parent="1">
          <mxGeometry x="980" y="220" width="50" height="20" as="geometry" />
        </mxCell>
        <mxCell id="9bMtUkMzaD1Lc-QsG-QS-38" value="&lt;b&gt;&lt;font color=&quot;#0000cc&quot; style=&quot;font-size: 13px&quot;&gt;Network&lt;/font&gt;&lt;/b&gt;" style="text;html=1;resizable=0;autosize=1;align=center;verticalAlign=middle;points=[];fillColor=none;strokeColor=none;rounded=0;dashed=1;" vertex="1" parent="1">
          <mxGeometry x="955" y="430" width="70" height="20" as="geometry" />
        </mxCell>
        <mxCell id="9bMtUkMzaD1Lc-QsG-QS-39" value="&lt;b&gt;&lt;font color=&quot;#0000cc&quot; style=&quot;font-size: 13px&quot;&gt;Infrastructure&lt;/font&gt;&lt;/b&gt;" style="text;html=1;resizable=0;autosize=1;align=center;verticalAlign=middle;points=[];fillColor=none;strokeColor=none;rounded=0;dashed=1;" vertex="1" parent="1">
          <mxGeometry x="950" y="330" width="100" height="20" as="geometry" />
        </mxCell>
        <mxCell id="9bMtUkMzaD1Lc-QsG-QS-40" value="&lt;font style=&quot;font-size: 10px&quot;&gt;JIT &amp;amp; JEA&lt;/font&gt;" style="text;html=1;resizable=0;autosize=1;align=center;verticalAlign=middle;points=[];rounded=0;dashed=1;fillColor=#f5f5f5;fontColor=#333333;" vertex="1" parent="1">
          <mxGeometry x="870" y="340" width="60" height="20" as="geometry" />
        </mxCell>
        <mxCell id="9bMtUkMzaD1Lc-QsG-QS-41" value="&lt;font style=&quot;font-size: 11px&quot;&gt;IaaS&lt;/font&gt;" style="text;html=1;resizable=0;autosize=1;align=center;verticalAlign=middle;points=[];rounded=0;dashed=1;fillColor=#f5f5f5;fontColor=#333333;" vertex="1" parent="1">
          <mxGeometry x="950" y="360" width="40" height="20" as="geometry" />
        </mxCell>
        <mxCell id="9bMtUkMzaD1Lc-QsG-QS-42" value="&lt;font style=&quot;font-size: 10px&quot;&gt;SaaS Apps&lt;/font&gt;" style="text;html=1;resizable=0;autosize=1;align=center;verticalAlign=middle;points=[];rounded=0;dashed=1;fillColor=#f5f5f5;fontColor=#333333;" vertex="1" parent="1">
          <mxGeometry x="975" y="240" width="60" height="20" as="geometry" />
        </mxCell>
        <mxCell id="9bMtUkMzaD1Lc-QsG-QS-43" value="&lt;font style=&quot;font-size: 11px&quot;&gt;Structured Data&lt;/font&gt;" style="text;html=1;resizable=0;autosize=1;align=center;verticalAlign=middle;points=[];rounded=0;dashed=1;fillColor=#f5f5f5;fontColor=#333333;" vertex="1" parent="1">
          <mxGeometry x="960" y="160" width="90" height="20" as="geometry" />
        </mxCell>
        <mxCell id="9bMtUkMzaD1Lc-QsG-QS-44" value="&lt;font style=&quot;font-size: 11px&quot;&gt;Emails &amp;amp; Documents&lt;/font&gt;" style="text;html=1;resizable=0;autosize=1;align=center;verticalAlign=middle;points=[];rounded=0;dashed=1;fillColor=#f5f5f5;fontColor=#333333;" vertex="1" parent="1">
          <mxGeometry x="950" y="132" width="120" height="20" as="geometry" />
        </mxCell>
        <mxCell id="9bMtUkMzaD1Lc-QsG-QS-45" value="&lt;font style=&quot;font-size: 10px&quot;&gt;OnPrem Apps&lt;/font&gt;" style="text;html=1;resizable=0;autosize=1;align=center;verticalAlign=middle;points=[];rounded=0;dashed=1;fillColor=#f5f5f5;fontColor=#333333;" vertex="1" parent="1">
          <mxGeometry x="970" y="270" width="80" height="20" as="geometry" />
        </mxCell>
        <mxCell id="9bMtUkMzaD1Lc-QsG-QS-46" value="&lt;font style=&quot;font-size: 11px&quot;&gt;Network Delivery&lt;/font&gt;" style="text;html=1;resizable=0;autosize=1;align=center;verticalAlign=middle;points=[];rounded=0;dashed=1;fillColor=#f5f5f5;fontColor=#333333;" vertex="1" parent="1">
          <mxGeometry x="955" y="460" width="100" height="20" as="geometry" />
        </mxCell>
        <mxCell id="9bMtUkMzaD1Lc-QsG-QS-47" value="&lt;font style=&quot;font-size: 11px&quot;&gt;PaaS&lt;/font&gt;" style="text;html=1;resizable=0;autosize=1;align=center;verticalAlign=middle;points=[];rounded=0;dashed=1;fillColor=#f5f5f5;fontColor=#333333;" vertex="1" parent="1">
          <mxGeometry x="1000" y="360" width="40" height="20" as="geometry" />
        </mxCell>
        <mxCell id="9bMtUkMzaD1Lc-QsG-QS-48" value="&lt;font style=&quot;font-size: 10px&quot;&gt;Classify, label, encrypt&lt;/font&gt;" style="text;html=1;resizable=0;autosize=1;align=center;verticalAlign=middle;points=[];rounded=0;dashed=1;fillColor=#f5f5f5;fontColor=#333333;" vertex="1" parent="1">
          <mxGeometry x="810" y="152" width="110" height="20" as="geometry" />
        </mxCell>
        <mxCell id="9bMtUkMzaD1Lc-QsG-QS-49" value="&lt;font style=&quot;font-size: 10px&quot;&gt;Adaptive Access&lt;/font&gt;" style="text;html=1;resizable=0;autosize=1;align=center;verticalAlign=middle;points=[];rounded=0;dashed=1;fillColor=#f5f5f5;fontColor=#333333;" vertex="1" parent="1">
          <mxGeometry x="820" y="250" width="90" height="20" as="geometry" />
        </mxCell>
        <mxCell id="9bMtUkMzaD1Lc-QsG-QS-50" value="&lt;font style=&quot;font-size: 10px&quot;&gt;Threat Protection&lt;/font&gt;" style="text;html=1;resizable=0;autosize=1;align=center;verticalAlign=middle;points=[];rounded=0;dashed=1;fillColor=#f5f5f5;fontColor=#333333;" vertex="1" parent="1">
          <mxGeometry x="760" y="420" width="90" height="20" as="geometry" />
        </mxCell>
        <mxCell id="9bMtUkMzaD1Lc-QsG-QS-51" value="&lt;font style=&quot;font-size: 10px&quot;&gt;Access &amp;amp; Runtime&lt;br&gt;Control&lt;/font&gt;" style="text;html=1;resizable=0;autosize=1;align=center;verticalAlign=middle;points=[];rounded=0;dashed=1;fillColor=#f5f5f5;fontColor=#333333;" vertex="1" parent="1">
          <mxGeometry x="765" y="355" width="100" height="30" as="geometry" />
        </mxCell>
      </root>
    </mxGraphModel>
  </diagram>
</mxfile>
